<?xml version="1.0" standalone="no"?><!DOCTYPE svg PUBLIC "-//W3C//DTD SVG 1.1//EN" "http://www.w3.org/Graphics/SVG/1.1/DTD/svg11.dtd"><svg t="1669877371287" class="icon" viewBox="0 0 1024 1024" version="1.1" xmlns="http://www.w3.org/2000/svg" p-id="3973" width="21" height="21" xmlns:xlink="http://www.w3.org/1999/xlink"><path d="M512 896c-230.058667 0-421.461333-165.546667-461.610667-384a468.565333 468.565333 0 0 1 142.506667-258.816L89.6 149.973333A42.666667 42.666667 0 1 1 149.930667 89.6L934.4 874.112a42.666667 42.666667 0 0 1-60.373333 60.330667l-111.061334-111.061334A466.901333 466.901333 0 0 1 512 896zM253.226667 313.6A382.506667 382.506667 0 0 0 137.514667 512a384.213333 384.213333 0 0 0 563.242666 249.088l-86.528-86.528A192 192 0 0 1 349.44 409.770667L253.226667 313.6z m297.770666 297.728l-138.325333-138.325333a106.666667 106.666667 0 0 0 138.282667 138.282666l0.042666 0.042667z m285.312 22.357333l10.24-18.218666A381.226667 381.226667 0 0 0 886.485333 512a384.213333 384.213333 0 0 0-440.661333-292.949333c-2.944 0.512-9.173333 1.877333-18.730667 4.096a42.88 42.88 0 1 1-19.2-83.541334A470.912 470.912 0 0 1 512 128c230.058667 0 421.461333 165.546667 461.610667 384a467.072 467.072 0 0 1-57.685334 153.856 94.933333 94.933333 0 0 1-8.021333 11.178667 44.373333 44.373333 0 0 1-58.794667 9.088 39.552 39.552 0 0 1-12.8-52.437334z m-188.501333-257.493333a192 192 0 0 1 55.850667 147.626667l-203.52-203.477334a192 192 0 0 1 147.626666 55.893334z" fill="#5D6E7F" p-id="3974"></path></svg>