<?xml version="1.0" standalone="no"?><!DOCTYPE svg PUBLIC "-//W3C//DTD SVG 1.1//EN" "http://www.w3.org/Graphics/SVG/1.1/DTD/svg11.dtd"><svg t="1643245570013" class="icon" viewBox="0 0 1024 1024" version="1.1" xmlns="http://www.w3.org/2000/svg" p-id="5026" xmlns:xlink="http://www.w3.org/1999/xlink" width="21" height="21"><defs><style type="text/css"></style></defs><path d="M694.432 298.816l119.326-119.325c11.716-11.716 30.71-11.716 42.426 0 11.716 11.716 11.716 30.71 0 42.426L749.876 328.226a451.444 451.444 0 0 0-55.444-29.41z m-421.54 28.954L167.037 221.917c-11.716-11.715-11.716-30.71 0-42.426 11.716-11.716 30.71-11.716 42.427 0l118.96 118.961a451.426 451.426 0 0 0-55.534 29.318zM481.5 260.955V92.705c0-16.57 13.431-30 30-30 16.569 0 30 13.43 30 30v168.313A456.145 456.145 0 0 0 511.019 260c-9.908 0-19.75 0.321-29.519 0.955z" fill="#2F54EB" p-id="5027"></path><path d="M511.019 200c237.468 0 437.05 161.553 493.981 380.322C946.811 797.239 748.13 957 511.981 957 274.513 957 74.931 795.447 18 576.678 76.189 359.761 274.87 200 511.019 200z m0.962 697c199.778 0 373.494-130.624 430.666-316.912C886.525 392.212 712.017 260 511.02 260 311.24 260 137.525 390.624 80.353 576.912 136.475 764.788 310.983 897 511.98 897z" fill="#2F54EB" p-id="5028"></path><path d="M512 795c-120.345 0-218-96.876-218-216.5S391.655 362 512 362s218 96.876 218 216.5S632.345 795 512 795z m0-60c87.315 0 158-70.121 158-156.5S599.315 422 512 422s-158 70.121-158 156.5S424.685 735 512 735z" fill="#85A5FF" p-id="5029"></path></svg>